<svg xmlns="http://www.w3.org/2000/svg" xmlns:xlink="http://www.w3.org/1999/xlink" width="466.06571" height="990.37374" version="1.1" style=""><rect id="backgroundrect" width="100%" height="100%" x="0" y="0" fill="none" stroke="none"/>
  
<g class="currentLayer" style=""><title>Layer 1</title><g id="layer1" class="selected" fill="#ffffff" fill-opacity="1">
    <path class="fil1" d="m465.6593014990234,765.4054170019531 c-10.10922,-3.6830100000000003 -20.01525,-7.26442 -29.89587,-10.89663 c-60.45214,-22.19965 -120.87889,-44.4247 -181.35643,-66.54816 c-2.74321,-1.016 -3.58141,-2.286 -3.58141,-5.18161 c0.07620000000000002,-169.901 0.07620000000000002,-339.802 0.025400000000000006,-509.703 c0,-2.48921 0.6096000000000001,-4.14021 2.6670100000000003,-5.76582 c69.49456,-54.73712 138.93833,-109.55045 208.40749,-164.36378 c1.0922,-0.8636100000000001 2.20981,-1.65101 3.75921,-2.79401 c0,255.169 0,509.8808 0,765.22761 z" id="path1454" style="clip-rule:evenodd;fill-rule:evenodd;stroke-width:0.0254001;image-rendering:optimizeQuality;shape-rendering:geometricPrecision;text-rendering:geometricPrecision" fill="#ffffff" fill-opacity="1"/>
    <path class="fil1" d="m0.025401499023438134,765.4054170019531 c0,-255.19441 0,-509.98241 0,-765.40541 c6.908816,5.4356100000000005 13.411232,10.51562 19.862847,15.62104 c63.652553,50.21592 127.305103,100.45723 191.008453,150.59695 c2.99721,2.36221 4.08941,4.72441 4.08941,8.55982 c-0.10160000000000001,168.758001 -0.10160000000000001,337.516 0.025400000000000006,506.2994 c0,4.24181 -1.0922,6.07061 -5.15621,7.54382 c-68.63097,25.01906 -137.18573,50.21591 -205.76589,75.36197 c-1.270003,0.48261000000000004 -2.565406,0.91441 -4.03861,1.4224100000000002 z" id="path1452" style="clip-rule:evenodd;fill-rule:evenodd;stroke-width:0.0254001;image-rendering:optimizeQuality;shape-rendering:geometricPrecision;text-rendering:geometricPrecision" fill="#ffffff" fill-opacity="1"/>
    <path class="fil1" d="m33.45188049902343,841.2753970019531 c0,15.49403 0,30.58167 0,46.07571 c6.705611,0 13.157231,0.127 19.608851,-0.127 c0.9398000000000001,-0.05080000000000001 2.5654,-1.87961 2.5908,-2.92101 c0.1778,-13.10643 0.20320000000000002,-26.23826 0,-39.34469 c-0.025400000000000006,-1.24461 -1.905,-3.45441 -3.02261,-3.50521 c-6.32461,-0.33020000000000005 -12.64923,-0.1778 -19.177041,-0.1778 zm25.831861,149.09835 h0.7112 c6.17222,-0.07620000000000002 11.53163,-2.03201 16.43384,-5.4356100000000005 c6.9850200000000005,-4.85142 10.97283,-11.37923 10.84583,-20.26925 c-0.1778,-13.25883 0,-26.51766 -0.07620000000000002,-39.7765 c-0.05080000000000001,-10.871220000000001 -3.93701,-19.63424 -14.19864,-24.71425 c8.33122,-6.07062 11.45543,-11.27763 11.58243,-20.67565 c0.20320000000000002,-13.63983 0.27940000000000004,-27.27967 0,-40.9195 c-0.27940000000000004,-14.70663 -9.90602,-23.82526 -24.536459999999998,-23.82526 c-17.47524,0 -34.925081,0 -52.400322,0 c-1.371603,0 -2.717806,0 -4.29261,0 c0,58.69954 0,116.89108 0,175.51442 c18.948445,0 37.414292,-0.15240000000000004 55.880132,0.07620000000000002 zM33.65508049902344,963.4750870019532 c6.883421,0 13.360431,-0.15240000000000004 19.837451,0.05080000000000001 c3.78461,0.127 5.02921,-1.70181 5.02921,-5.02922 c0,-11.70942 0.07620000000000002,-23.44425 -0.05080000000000001,-35.15368 c-0.05080000000000001,-4.69901 -3.35281,-8.96622 -7.54382,-9.24562 c-5.66421,-0.38100000000000006 -11.37923,-0.10160000000000001 -17.297441,-0.10160000000000001 c0,16.56084 0,32.79148 0,49.47932 z" id="path1456" style="clip-rule:evenodd;fill-rule:evenodd;stroke-width:0.0254001;image-rendering:optimizeQuality;shape-rendering:geometricPrecision;text-rendering:geometricPrecision" fill="#ffffff" fill-opacity="1"/>
    <path class="fil1" d="m220.11692149902342,841.9357970019531 c-8.43282,0 -16.17984,-0.127 -23.90146,0.07620000000000002 c-2.7686,0.07620000000000002 -4.01321,-0.9144 -4.95301,-3.45441 c-2.92101,-7.82322 -6.12141,-15.54484 -9.32182,-23.62206 c34.74728,0 68.98656,0 103.88625,0 c-1.11761,3.32741 -2.10821,6.40082 -3.17501,9.448830000000001 c-1.65101,4.80061 -3.50521,9.55042 -4.95301,14.42723 c-0.7620100000000001,2.5908100000000003 -2.08281,3.25121 -4.62282,3.20041 c-7.87401,-0.15240000000000004 -15.74803,-0.05080000000000001 -24.00305,-0.05080000000000001 c0,49.50472 0,98.67923 0,148.10775 c-9.75362,0 -19.12625,0 -28.93067,0 c0,-49.12372 0,-98.24743 0,-148.10775 z" id="path1460" style="clip-rule:evenodd;fill-rule:evenodd;stroke-width:0.0254001;image-rendering:optimizeQuality;shape-rendering:geometricPrecision;text-rendering:geometricPrecision" fill="#ffffff" fill-opacity="1"/>
    <path class="fil1" d="m385.90311149902345,932.6140070019532 c9.49962,0 18.87225,0 28.54967,0 c0.10160000000000001,1.19381 0.254,2.28601 0.254,3.37821 c0.025400000000000006,8.15342 0.07620000000000002,16.33224 -0.025400000000000006,24.48566 c-0.025400000000000006,2.6670000000000003 0.8890000000000001,4.14021 3.6830100000000003,4.14021 c4.72441,0 9.42342,-0.025400000000000006 14.14783,-0.025400000000000006 c2.94641,0 4.14021,-1.77801 4.16561,-4.39421 c0.07620000000000002,-10.33783 0.254,-20.65025 -0.127,-30.98808 c-0.07620000000000002,-2.1844 -1.8288000000000002,-4.92761 -3.65761,-6.32461 c-5.02921,-3.86081 -10.33782,-7.41682 -15.82423,-10.61723 c-9.77903,-5.68961 -18.92305,-12.03962 -25.83187,-21.18365 c-3.7592,-5.00381 -5.99441,-10.33782 -5.7912099999999995,-16.91644 c0.38100000000000006,-12.24282 0.10160000000000001,-24.48565 0.10160000000000001,-36.72848 c0,-12.57303 10.16002,-22.68226 22.88545,-22.70766 c11.09983,-0.025400000000000006 22.19966,0 33.27408,0 c14.68124,0 22.98706,7.64542 24.15546,22.27586 c0.10160000000000001,1.397 0.07620000000000002,2.794 0.07620000000000002,4.19101 c0,8.91542 0,17.83084 0,27.05106 c-9.42342,0 -18.64364,0 -28.27027,0 c-0.10160000000000001,-0.9906 -0.27940000000000004,-2.0828 -0.30480000000000007,-3.17501 c-0.07620000000000002,-6.3754100000000005 -0.15240000000000004,-12.75083 -0.127,-19.12624 c0,-2.64161 -1.0922,-4.19101 -3.73381,-4.24181 c-5.23241,-0.07620000000000002 -10.46482,-0.254 -15.67183,0.127 c-1.14301,0.07620000000000002 -3.02261,2.2098 -3.04801,3.42901 c-0.254,9.16942 -0.5588000000000001,18.38964 0.127,27.50826 c0.1778,2.48921 3.30201,5.30861 5.74041,6.9850200000000005 c7.74702,5.3594100000000005 15.84964,10.18542 23.77446,15.316230000000001 c6.9850200000000005,4.54661 13.84303,9.42343 17.95784,16.81484 c1.95581,3.50521 3.32741,7.82322 3.42901,11.78563 c0.1778,6.09602 0.22860000000000003,12.19203 0.22860000000000003,18.31344 v3.6068100000000003 c0,7.11202 -0.07620000000000002,14.19864 -0.10160000000000001,21.31065 c-0.025400000000000006,12.70003 -10.26162,23.13946 -22.98705,23.29186 c-12.11583,0.15240000000000004 -24.23166,0.10160000000000001 -36.34749,0 c-9.72822,-0.07620000000000002 -20.75185,-10.66803 -20.95505,-20.44705 c-0.254,-11.86183 -0.05080000000000001,-23.72366 -0.05080000000000001,-35.58548 c0,-0.48260000000000003 0.15240000000000004,-0.96521 0.27940000000000004,-1.62561 z" id="path1458" style="clip-rule:evenodd;fill-rule:evenodd;stroke-width:0.0254001;image-rendering:optimizeQuality;shape-rendering:geometricPrecision;text-rendering:geometricPrecision" fill="#ffffff" fill-opacity="1"/>
    <text xml:space="preserve" style="font-style:normal;font-variant:normal;font-weight:bold;font-stretch:normal;font-size:14.1111px;font-family:'Nokia Eurostile';letter-spacing:0px;word-spacing:0px;stroke-width:0.264583" x="8.78949749902344" y="482.6427270019531" id="text972" fill="#ffffff" fill-opacity="1"/>
    <text xml:space="preserve" style="font-style:normal;font-variant:normal;font-weight:normal;font-stretch:normal;font-size:14.1111px;font-family:'Nokia Eurostile';letter-spacing:0px;word-spacing:0px;stroke-width:0.264583" x="6.710624499023439" y="489.9187770019531" id="text976" fill="#ffffff" fill-opacity="1"/>
  </g></g></svg>